<svg width="15" height="15" fill="currentColor" xmlns="http://www.w3.org/2000/svg"><path fill-rule="evenodd" clip-rule="evenodd" d="M7.5 0C5.465 0 5.209.009 4.409.045c-.798.037-1.343.163-1.82.349a3.672 3.672 0 0 0-1.329.865 3.682 3.682 0 0 0-.865 1.328C.208 3.064.08 3.609.045 4.407.01 5.207 0 5.463 0 7.5s.01 2.292.045 3.092c.037.798.163 1.343.349 1.82.191.493.448.912.865 1.329.416.417.835.674 1.328.865.477.186 1.022.312 1.82.349.8.036 1.056.045 3.093.045s2.292-.009 3.092-.045c.798-.037 1.344-.163 1.821-.349a3.67 3.67 0 0 0 1.328-.865c.417-.417.673-.836.865-1.329.185-.477.311-1.022.349-1.82.036-.8.045-1.055.045-3.092s-.01-2.292-.045-3.092c-.038-.799-.164-1.344-.349-1.82a3.68 3.68 0 0 0-.865-1.33 3.665 3.665 0 0 0-1.329-.864C11.934.208 11.39.082 10.591.045 9.79.01 9.536 0 7.498 0h.003Zm-.25 1.351h.25c2.003 0 2.24.008 3.031.044.732.033 1.128.155 1.393.258.35.136.6.298.862.56.262.263.425.513.561.863.103.264.225.661.258 1.393.036.79.044 1.028.044 3.03 0 2-.008 2.238-.044 3.03-.033.73-.155 1.127-.258 1.391-.136.35-.299.6-.561.862a2.32 2.32 0 0 1-.862.56c-.264.104-.661.226-1.393.26-.79.035-1.028.043-3.03.043-2.003 0-2.24-.008-3.03-.044-.732-.034-1.13-.156-1.394-.258-.35-.136-.6-.299-.862-.561a2.324 2.324 0 0 1-.561-.862c-.103-.264-.225-.661-.259-1.393-.036-.79-.043-1.028-.043-3.03 0-2.003.007-2.24.043-3.03.034-.732.156-1.128.259-1.393.136-.35.298-.6.56-.862.263-.263.513-.425.863-.562.265-.103.662-.225 1.393-.258.692-.031.96-.04 2.358-.042v.002h.423Zm3.354 2.146a.9.9 0 1 1 1.8 0 .9.9 0 0 1-1.8 0Zm-3.103.151a3.852 3.852 0 1 0 0 7.704 3.852 3.852 0 0 0 0-7.704ZM10 7.5a2.5 2.5 0 1 0-5 0 2.5 2.5 0 0 0 5 0Z" fill="#aaa"/></svg>