<svg width="16" height="13" fill="currentColor" xmlns="http://www.w3.org/2000/svg"><path d="M15.07 1.446a6.194 6.194 0 0 1-1.776.485A3.089 3.089 0 0 0 14.651.223c-.607.36-1.271.614-1.963.75A3.093 3.093 0 0 0 7.421 3.79 8.79 8.79 0 0 1 1.046.562a3.098 3.098 0 0 0 .96 4.128 3.097 3.097 0 0 1-1.403-.385v.037a3.093 3.093 0 0 0 2.482 3.031c-.266.073-.54.11-.816.109a3.06 3.06 0 0 1-.595-.055 3.09 3.09 0 0 0 2.889 2.148A6.254 6.254 0 0 1 0 10.855a8.757 8.757 0 0 0 4.738 1.39c5.69 0 8.79-4.709 8.79-8.79v-.419a6.28 6.28 0 0 0 1.541-1.59Z" fill="#aaa"/></svg>